<svg width="141" height="54" viewBox="0 0 141 54" fill="none" xmlns="http://www.w3.org/2000/svg">
<path d="M19.3438 35H18.5V23.7188H3.96875V35H3.125V12.25H3.96875V22.875H18.5V12.25H19.3438V35ZM41.7031 25.3281C41.7031 27.2969 41.349 29.0417 40.6406 30.5625C39.9427 32.0729 38.9427 33.2448 37.6406 34.0781C36.3385 34.901 34.8385 35.3125 33.1406 35.3125C30.5781 35.3125 28.5052 34.401 26.9219 32.5781C25.3385 30.7552 24.5469 28.2969 24.5469 25.2031V21.9219C24.5469 19.9635 24.8958 18.224 25.5938 16.7031C26.3021 15.1823 27.3073 14.0104 28.6094 13.1875C29.9219 12.3542 31.4219 11.9375 33.1094 11.9375C34.8073 11.9375 36.3073 12.3542 37.6094 13.1875C38.9219 14.0104 39.9323 15.1875 40.6406 16.7188C41.349 18.2396 41.7031 19.974 41.7031 21.9219V25.3281ZM40.8594 21.8906C40.8594 19.1406 40.1615 16.9375 38.7656 15.2812C37.3698 13.6146 35.4844 12.7812 33.1094 12.7812C30.7656 12.7812 28.8958 13.6094 27.5 15.2656C26.1042 16.9115 25.4062 19.1562 25.4062 22V25.3281C25.4062 27.1406 25.7188 28.7448 26.3438 30.1406C26.9792 31.526 27.8802 32.5938 29.0469 33.3438C30.2135 34.0938 31.5781 34.4688 33.1406 34.4688C35.5156 34.4688 37.3958 33.6406 38.7812 31.9844C40.1667 30.3281 40.8594 28.0677 40.8594 25.2031V21.8906Z" fill="white"/>
<path d="M109.781 25.2656H101.891V35H101.047V12.25H108.297C110.578 12.25 112.391 12.8385 113.734 14.0156C115.089 15.1927 115.766 16.7917 115.766 18.8125C115.766 20.3646 115.281 21.724 114.312 22.8906C113.354 24.0469 112.13 24.7656 110.641 25.0469L116.719 34.7812V35H115.828L109.781 25.2656ZM101.891 24.4219H109.062C110.812 24.4219 112.224 23.8906 113.297 22.8281C114.38 21.7656 114.922 20.4271 114.922 18.8125C114.922 17.0417 114.323 15.6458 113.125 14.625C111.938 13.6042 110.307 13.0938 108.234 13.0938H101.891V24.4219ZM137.375 12.25V27.6562C137.375 30.0625 136.677 31.9427 135.281 33.2969C133.885 34.6406 131.995 35.3125 129.609 35.3125C127.224 35.3125 125.333 34.6406 123.938 33.2969C122.542 31.9427 121.839 30.0833 121.828 27.7188V12.25H122.672V27.625C122.672 29.7292 123.302 31.3958 124.562 32.625C125.833 33.8542 127.516 34.4688 129.609 34.4688C131.703 34.4688 133.38 33.8542 134.641 32.625C135.901 31.3958 136.531 29.724 136.531 27.6094V12.25H137.375Z" fill="white"/>
<rect x="45" y="8" width="52" height="34" rx="7" fill="url(#paint0_linear_1_25)"/>
<path d="M53.9229 11.8281L61.8252 31.5508L69.7275 11.8281H73.8613V36H70.6738V26.5869L70.9727 16.4268L63.0371 36H60.5967L52.6777 16.4766L52.9932 26.5869V36H49.8057V11.8281H53.9229ZM86.3955 23.9639L92.7041 11.8281H96.3232L87.9893 26.9854V36H84.8018V26.9854L76.4678 11.8281H80.1201L86.3955 23.9639Z" fill="#FE6D34"/>
<path d="M7.40576 48.6724C7.40576 49.16 7.32373 49.5861 7.15967 49.9507C6.99561 50.313 6.76318 50.5898 6.4624 50.7812C6.16162 50.9727 5.81071 51.0684 5.40967 51.0684C5.01774 51.0684 4.67025 50.9727 4.36719 50.7812C4.06413 50.5876 3.82829 50.313 3.65967 49.9575C3.49333 49.5998 3.40788 49.1862 3.40332 48.7168V48.3579C3.40332 47.8794 3.48649 47.4567 3.65283 47.0898C3.81917 46.723 4.05387 46.4427 4.35693 46.249C4.66227 46.0531 5.0109 45.9551 5.40283 45.9551C5.8016 45.9551 6.15251 46.0519 6.45557 46.2456C6.7609 46.437 6.99561 46.7161 7.15967 47.083C7.32373 47.4476 7.40576 47.8726 7.40576 48.3579V48.6724ZM6.75293 48.3511C6.75293 47.7609 6.63444 47.3086 6.39746 46.9941C6.16048 46.6774 5.82894 46.519 5.40283 46.519C4.98812 46.519 4.66113 46.6774 4.42188 46.9941C4.1849 47.3086 4.06299 47.7461 4.05615 48.3066V48.6724C4.05615 49.2443 4.17578 49.6943 4.41504 50.0225C4.65658 50.3483 4.98812 50.5112 5.40967 50.5112C5.8335 50.5112 6.16162 50.3574 6.39404 50.0498C6.62646 49.7399 6.74609 49.2967 6.75293 48.7202V48.3511ZM11.4253 46.5635H9.02588V48.0537H10.2632C10.7827 48.0605 11.1883 48.1938 11.48 48.4536C11.7716 48.7134 11.9175 49.0666 11.9175 49.5132C11.9175 49.9621 11.7705 50.3198 11.4766 50.5864C11.1826 50.853 10.7816 50.9909 10.2734 51H8.36621V46.0234H11.4253V46.5635ZM9.02588 48.5938V50.4634H10.2256C10.5514 50.4634 10.8044 50.3768 10.9844 50.2036C11.1667 50.0304 11.2578 49.798 11.2578 49.5063C11.2578 49.2261 11.1701 49.005 10.9946 48.8433C10.8215 48.6815 10.5742 48.5983 10.2529 48.5938H9.02588ZM16.6343 48.6724C16.6343 49.16 16.5522 49.5861 16.3882 49.9507C16.2241 50.313 15.9917 50.5898 15.6909 50.7812C15.3901 50.9727 15.0392 51.0684 14.6382 51.0684C14.2463 51.0684 13.8988 50.9727 13.5957 50.7812C13.2926 50.5876 13.0568 50.313 12.8882 49.9575C12.7218 49.5998 12.6364 49.1862 12.6318 48.7168V48.3579C12.6318 47.8794 12.715 47.4567 12.8813 47.0898C13.0477 46.723 13.2824 46.4427 13.5854 46.249C13.8908 46.0531 14.2394 45.9551 14.6313 45.9551C15.0301 45.9551 15.381 46.0519 15.6841 46.2456C15.9894 46.437 16.2241 46.7161 16.3882 47.083C16.5522 47.4476 16.6343 47.8726 16.6343 48.3579V48.6724ZM15.9814 48.3511C15.9814 47.7609 15.863 47.3086 15.626 46.9941C15.389 46.6774 15.0575 46.519 14.6313 46.519C14.2166 46.519 13.8896 46.6774 13.6504 46.9941C13.4134 47.3086 13.2915 47.7461 13.2847 48.3066V48.6724C13.2847 49.2443 13.4043 49.6943 13.6436 50.0225C13.8851 50.3483 14.2166 50.5112 14.6382 50.5112C15.062 50.5112 15.3901 50.3574 15.6226 50.0498C15.855 49.7399 15.9746 49.2967 15.9814 48.7202V48.3511ZM18.2749 49.0518V51H17.6187V46.0234H19.4541C19.9987 46.0234 20.4248 46.1624 20.7324 46.4404C21.0423 46.7184 21.1973 47.0864 21.1973 47.5444C21.1973 48.0275 21.0457 48.4001 20.7427 48.6621C20.4419 48.9219 20.0101 49.0518 19.4473 49.0518H18.2749ZM18.2749 48.5151H19.4541C19.805 48.5151 20.0739 48.4331 20.2607 48.269C20.4476 48.1027 20.541 47.8634 20.541 47.5513C20.541 47.255 20.4476 47.0181 20.2607 46.8403C20.0739 46.6626 19.8175 46.5703 19.4917 46.5635H18.2749V48.5151ZM23.7437 48.9116L24.8887 46.0234H25.6509L23.8906 50.1694C23.7721 50.4338 23.6616 50.6217 23.5591 50.7334C23.4565 50.8428 23.3358 50.9271 23.1968 50.9863C23.0601 51.0433 22.888 51.0718 22.6807 51.0718C22.5007 51.0718 22.3856 51.0615 22.3354 51.041L22.356 50.5215L22.667 50.5352C22.9062 50.5352 23.084 50.4201 23.2002 50.1899L23.2856 50.0122L23.4155 49.708L21.7202 46.0234H22.4551L23.7437 48.9116ZM30.6343 52.2202H29.9814V51H26.4097V52.2236H25.7534L25.75 50.4634H26.1567C26.3709 50.2218 26.5407 49.8983 26.666 49.4927C26.7936 49.0848 26.8734 48.6382 26.9053 48.1528L27.0146 46.0234H29.9917V50.4634H30.6411L30.6343 52.2202ZM26.9053 50.4634H29.332V46.5635H27.647L27.5752 48.0264C27.5456 48.5983 27.4692 49.0859 27.3462 49.4893C27.2254 49.8926 27.0785 50.2173 26.9053 50.4634ZM35.1665 48.6724C35.1665 49.16 35.0845 49.5861 34.9204 49.9507C34.7563 50.313 34.5239 50.5898 34.2231 50.7812C33.9224 50.9727 33.5715 51.0684 33.1704 51.0684C32.7785 51.0684 32.431 50.9727 32.1279 50.7812C31.8249 50.5876 31.589 50.313 31.4204 49.9575C31.2541 49.5998 31.1686 49.1862 31.1641 48.7168V48.3579C31.1641 47.8794 31.2472 47.4567 31.4136 47.0898C31.5799 46.723 31.8146 46.4427 32.1177 46.249C32.423 46.0531 32.7716 45.9551 33.1636 45.9551C33.5623 45.9551 33.9132 46.0519 34.2163 46.2456C34.5216 46.437 34.7563 46.7161 34.9204 47.083C35.0845 47.4476 35.1665 47.8726 35.1665 48.3579V48.6724ZM34.5137 48.3511C34.5137 47.7609 34.3952 47.3086 34.1582 46.9941C33.9212 46.6774 33.5897 46.519 33.1636 46.519C32.7489 46.519 32.4219 46.6774 32.1826 46.9941C31.9456 47.3086 31.8237 47.7461 31.8169 48.3066V48.6724C31.8169 49.2443 31.9365 49.6943 32.1758 50.0225C32.4173 50.3483 32.7489 50.5112 33.1704 50.5112C33.5942 50.5112 33.9224 50.3574 34.1548 50.0498C34.3872 49.7399 34.5068 49.2967 34.5137 48.7202V48.3511ZM36.1509 51V46.0234H37.7778C38.3179 46.0234 38.7235 46.1351 38.9946 46.3584C39.2681 46.5817 39.4048 46.9121 39.4048 47.3496C39.4048 47.582 39.3387 47.7882 39.2065 47.9683C39.0744 48.146 38.8944 48.2839 38.6665 48.3818C38.9354 48.457 39.1473 48.6006 39.3022 48.8125C39.4595 49.0221 39.5381 49.2728 39.5381 49.5645C39.5381 50.0111 39.3934 50.362 39.104 50.6172C38.8146 50.8724 38.4056 51 37.877 51H36.1509ZM36.8071 48.6724V50.4634H37.8906C38.196 50.4634 38.4364 50.3848 38.6118 50.2275C38.7896 50.068 38.8784 49.8493 38.8784 49.5713C38.8784 48.972 38.5526 48.6724 37.9009 48.6724H36.8071ZM36.8071 48.146H37.7983C38.0854 48.146 38.3145 48.0742 38.4854 47.9307C38.6585 47.7871 38.7451 47.5923 38.7451 47.3462C38.7451 47.0728 38.6654 46.8745 38.5059 46.7515C38.3464 46.6261 38.1037 46.5635 37.7778 46.5635H36.8071V48.146ZM43.2603 49.7012H41.1753L40.707 51H40.0303L41.9307 46.0234H42.5049L44.4087 51H43.7354L43.2603 49.7012ZM41.3735 49.1611H43.0654L42.2178 46.8335L41.3735 49.1611ZM48.9033 51H48.2437V48.6997H45.7349V51H45.0786V46.0234H45.7349V48.1631H48.2437V46.0234H48.9033V51ZM53.2065 46.0234H53.8628V51H53.2065V47.165L50.7559 51H50.0962V46.0234H50.7559V49.8584L53.2065 46.0234ZM57.8721 48.6997H55.7153V50.4634H58.2207V51H55.0591V46.0234H58.1865V46.5635H55.7153V48.1631H57.8721V48.6997ZM63.9116 46.0234H64.5679V51H63.9116V47.165L61.4609 51H60.8013V46.0234H61.4609V49.8584L63.9116 46.0234ZM68.1567 49.0518V51H67.5005V46.0234H69.3359C69.8805 46.0234 70.3066 46.1624 70.6143 46.4404C70.9242 46.7184 71.0791 47.0864 71.0791 47.5444C71.0791 48.0275 70.9276 48.4001 70.6245 48.6621C70.3237 48.9219 69.8919 49.0518 69.3291 49.0518H68.1567ZM68.1567 48.5151H69.3359C69.6868 48.5151 69.9557 48.4331 70.1426 48.269C70.3294 48.1027 70.4229 47.8634 70.4229 47.5513C70.4229 47.255 70.3294 47.0181 70.1426 46.8403C69.9557 46.6626 69.6994 46.5703 69.3735 46.5635H68.1567V48.5151ZM74.7295 48.6997H72.5728V50.4634H75.0781V51H71.9165V46.0234H75.0439V46.5635H72.5728V48.1631H74.7295V48.6997ZM76.5786 46.0234V50.4634H78.291V46.0234H78.9438V50.4634H80.646V46.0234H81.3022V51H75.9189V46.0234H76.5786ZM85.2979 48.6997H83.1411V50.4634H85.6465V51H82.4849V46.0234H85.6123V46.5635H83.1411V48.1631H85.2979V48.6997ZM90.2881 51H89.6284V48.6997H87.1196V51H86.4634V46.0234H87.1196V48.1631H89.6284V46.0234H90.2881V51ZM94.5913 46.0234H95.2476V51H94.5913V47.165L92.1406 51H91.481V46.0234H92.1406V49.8584L94.5913 46.0234ZM99.0483 51V49.062H97.8999L96.8711 51H96.1704L97.3257 48.8809C96.6831 48.6279 96.3618 48.1756 96.3618 47.5239C96.3618 47.05 96.5168 46.682 96.8267 46.4199C97.1388 46.1556 97.5718 46.0234 98.1255 46.0234H99.708V51H99.0483ZM97.0181 47.5239C97.0181 47.8247 97.1115 48.0662 97.2983 48.2485C97.4875 48.4308 97.7495 48.5231 98.0845 48.5254H99.0483V46.5635H98.1152C97.7598 46.5635 97.4875 46.6478 97.2983 46.8164C97.1115 46.985 97.0181 47.2209 97.0181 47.5239ZM107.115 52.2202H106.462V51H102.89V52.2236H102.234L102.23 50.4634H102.637C102.851 50.2218 103.021 49.8983 103.146 49.4927C103.274 49.0848 103.354 48.6382 103.386 48.1528L103.495 46.0234H106.472V50.4634H107.122L107.115 52.2202ZM103.386 50.4634H105.812V46.5635H104.127L104.056 48.0264C104.026 48.5983 103.95 49.0859 103.827 49.4893C103.706 49.8926 103.559 50.2173 103.386 50.4634ZM111.719 46.0234V51H111.062V46.5635H109.278L109.189 48.5356C109.155 49.1965 109.087 49.6932 108.984 50.0259C108.884 50.3586 108.736 50.6035 108.54 50.7607C108.344 50.9157 108.082 50.9954 107.754 51H107.539V50.4634L107.675 50.4565C107.887 50.4406 108.05 50.3722 108.164 50.2515C108.278 50.1284 108.365 49.9336 108.424 49.667C108.483 49.4004 108.525 48.9902 108.55 48.4365L108.653 46.0234H111.719ZM115.516 51V49.062H114.368L113.339 51H112.638L113.793 48.8809C113.151 48.6279 112.83 48.1756 112.83 47.5239C112.83 47.05 112.985 46.682 113.294 46.4199C113.607 46.1556 114.04 46.0234 114.593 46.0234H116.176V51H115.516ZM113.486 47.5239C113.486 47.8247 113.579 48.0662 113.766 48.2485C113.955 48.4308 114.217 48.5231 114.552 48.5254H115.516V46.5635H114.583C114.228 46.5635 113.955 46.6478 113.766 46.8164C113.579 46.985 113.486 47.2209 113.486 47.5239ZM120.752 50.1284L122.174 46.0234H122.892L121.046 51H120.465L118.623 46.0234H119.337L120.752 50.1284ZM127.342 48.6724C127.342 49.16 127.26 49.5861 127.096 49.9507C126.932 50.313 126.7 50.5898 126.399 50.7812C126.098 50.9727 125.747 51.0684 125.346 51.0684C124.954 51.0684 124.607 50.9727 124.304 50.7812C124.001 50.5876 123.765 50.313 123.596 49.9575C123.43 49.5998 123.344 49.1862 123.34 48.7168V48.3579C123.34 47.8794 123.423 47.4567 123.589 47.0898C123.756 46.723 123.99 46.4427 124.293 46.249C124.599 46.0531 124.947 45.9551 125.339 45.9551C125.738 45.9551 126.089 46.0519 126.392 46.2456C126.697 46.437 126.932 46.7161 127.096 47.083C127.26 47.4476 127.342 47.8726 127.342 48.3579V48.6724ZM126.689 48.3511C126.689 47.7609 126.571 47.3086 126.334 46.9941C126.097 46.6774 125.765 46.519 125.339 46.519C124.925 46.519 124.598 46.6774 124.358 46.9941C124.121 47.3086 124 47.7461 123.993 48.3066V48.6724C123.993 49.2443 124.112 49.6943 124.352 50.0225C124.593 50.3483 124.925 50.5112 125.346 50.5112C125.77 50.5112 126.098 50.3574 126.331 50.0498C126.563 49.7399 126.683 49.2967 126.689 48.7202V48.3511ZM129.031 51H128.375V46.0234H129.031V51ZM130.89 49.0518V51H130.234V46.0234H132.069C132.614 46.0234 133.04 46.1624 133.348 46.4404C133.658 46.7184 133.812 47.0864 133.812 47.5444C133.812 48.0275 133.661 48.4001 133.358 48.6621C133.057 48.9219 132.625 49.0518 132.062 49.0518H130.89ZM130.89 48.5151H132.069C132.42 48.5151 132.689 48.4331 132.876 48.269C133.063 48.1027 133.156 47.8634 133.156 47.5513C133.156 47.255 133.063 47.0181 132.876 46.8403C132.689 46.6626 132.433 46.5703 132.107 46.5635H130.89V48.5151Z" fill="white"/>
<defs>
<linearGradient id="paint0_linear_1_25" x1="46.6883" y1="8" x2="102.739" y2="32.1748" gradientUnits="userSpaceOnUse">
<stop stop-color="#E2E5EC"/>
<stop offset="1" stop-color="white"/>
</linearGradient>
</defs>
</svg>
