<svg width="34" height="44" viewBox="0 0 34 44" fill="none" xmlns="http://www.w3.org/2000/svg">
<path d="M30 0H4C1.79086 0 0 1.79086 0 4V30.3089C0 31.6739 0.696121 32.9447 1.84644 33.6797L15.7143 42.5397C17.0944 43.4214 18.8726 43.3728 20.2024 42.417L32.3345 33.697C33.3801 32.9455 34 31.7366 34 30.449V4C34 1.79086 32.2091 0 30 0Z" fill="#4E9DD9"/>
<path d="M10.0254 14.5156C10.0254 13.6628 10.2956 12.9596 10.8359 12.4062C11.3828 11.8529 12.0827 11.5762 12.9355 11.5762C13.8014 11.5762 14.5013 11.8561 15.0352 12.416C15.5755 12.9694 15.8457 13.6888 15.8457 14.5742V15.2676C15.8457 16.127 15.5723 16.8301 15.0254 17.377C14.485 17.9173 13.7949 18.1875 12.9551 18.1875C12.1087 18.1875 11.4089 17.9173 10.8555 17.377C10.3021 16.8301 10.0254 16.1042 10.0254 15.1992V14.5156ZM11.373 15.2676C11.373 15.7754 11.5163 16.1953 11.8027 16.5273C12.0892 16.8529 12.4733 17.0156 12.9551 17.0156C13.4173 17.0156 13.7884 16.8561 14.0684 16.5371C14.3548 16.2181 14.498 15.7819 14.498 15.2285V14.5156C14.498 14.0078 14.3581 13.5879 14.0781 13.2559C13.7982 12.9238 13.4173 12.7578 12.9355 12.7578C12.4538 12.7578 12.0729 12.9238 11.793 13.2559C11.513 13.5879 11.373 14.0208 11.373 14.5547V15.2676ZM16.9492 22.5137C16.9492 21.6608 17.2194 20.9609 17.7598 20.4141C18.3066 19.8607 19.0065 19.584 19.8594 19.584C20.7122 19.584 21.4121 19.8574 21.959 20.4043C22.5059 20.9512 22.7793 21.6771 22.7793 22.582V23.2754C22.7793 24.1283 22.5059 24.8314 21.959 25.3848C21.4186 25.9316 20.7253 26.2051 19.8789 26.2051C19.0326 26.2051 18.3327 25.9349 17.7793 25.3945C17.2259 24.8477 16.9492 24.1217 16.9492 23.2168V22.5137ZM18.2969 23.2754C18.2969 23.7897 18.4401 24.2129 18.7266 24.5449C19.013 24.8704 19.3971 25.0332 19.8789 25.0332C20.3477 25.0332 20.722 24.8737 21.002 24.5547C21.2819 24.2292 21.4219 23.7897 21.4219 23.2363V22.5137C21.4219 21.9993 21.2786 21.5794 20.9922 21.2539C20.7122 20.9284 20.3346 20.7656 19.8594 20.7656C19.3971 20.7656 19.0195 20.9284 18.7266 21.2539C18.4401 21.5729 18.2969 22.0059 18.2969 22.5527V23.2754ZM13.3652 24.9258L12.3398 24.2812L19.2832 13.168L20.3086 13.8125L13.3652 24.9258Z" fill="white"/>
</svg>
