<svg width="209" height="69" viewBox="0 0 209 69" fill="none" xmlns="http://www.w3.org/2000/svg">
<path d="M27.8066 50H26.5938V33.7832H5.70508V50H4.49219V17.2969H5.70508V32.5703H26.5938V17.2969H27.8066V50ZM59.9482 36.0967C59.9482 38.9268 59.4391 41.4349 58.4209 43.6211C57.4176 45.7923 55.9801 47.4769 54.1084 48.6748C52.2367 49.8577 50.0804 50.4492 47.6396 50.4492C43.9561 50.4492 40.9762 49.139 38.7002 46.5186C36.4242 43.8981 35.2861 40.3643 35.2861 35.917V31.2002C35.2861 28.3851 35.7878 25.8844 36.791 23.6982C37.8092 21.512 39.2542 19.8275 41.126 18.6445C43.0127 17.4466 45.1689 16.8477 47.5947 16.8477C50.0355 16.8477 52.1917 17.4466 54.0635 18.6445C55.9502 19.8275 57.4027 21.5195 58.4209 23.7207C59.4391 25.9069 59.9482 28.4001 59.9482 31.2002V36.0967ZM58.7354 31.1553C58.7354 27.2021 57.7321 24.0352 55.7256 21.6543C53.7191 19.2585 51.0088 18.0605 47.5947 18.0605C44.2256 18.0605 41.5378 19.251 39.5312 21.6318C37.5247 23.9977 36.5215 27.2246 36.5215 31.3125V36.0967C36.5215 38.7021 36.9707 41.0081 37.8691 43.0146C38.7826 45.0062 40.0778 46.541 41.7549 47.6191C43.432 48.6973 45.3936 49.2363 47.6396 49.2363C51.0537 49.2363 53.7565 48.0459 55.748 45.665C57.7396 43.2842 58.7354 40.0348 58.7354 35.917V31.1553Z" fill="black"/>
<path d="M164.936 37.0068H153.593V51H152.38V18.2969H162.802C166.081 18.2969 168.687 19.1429 170.618 20.835C172.565 22.527 173.538 24.8255 173.538 27.7305C173.538 29.9616 172.842 31.9157 171.449 33.5928C170.072 35.2549 168.312 36.2881 166.171 36.6924L174.908 50.6855V51H173.628L164.936 37.0068ZM153.593 35.7939H163.902C166.418 35.7939 168.447 35.0303 169.989 33.5029C171.547 31.9756 172.325 30.0514 172.325 27.7305C172.325 25.1849 171.464 23.1784 169.742 21.7109C168.035 20.2435 165.692 19.5098 162.712 19.5098H153.593V35.7939ZM204.602 18.2969V40.4434C204.602 43.9023 203.598 46.6051 201.592 48.5518C199.585 50.4834 196.868 51.4492 193.438 51.4492C190.009 51.4492 187.292 50.4834 185.285 48.5518C183.279 46.6051 182.268 43.9323 182.253 40.5332V18.2969H183.466V40.3984C183.466 43.4232 184.372 45.819 186.184 47.5859C188.01 49.3529 190.429 50.2363 193.438 50.2363C196.448 50.2363 198.859 49.3529 200.671 47.5859C202.483 45.819 203.389 43.4157 203.389 40.376V18.2969H204.602Z" fill="black"/>
<rect x="66" y="10" width="79" height="47" rx="12" fill="url(#paint0_linear_704_2)"/>
<path d="M80.3662 16.2969L91.0576 42.9805L101.749 16.2969H107.342V49H103.029V36.2646L103.434 22.5186L92.6973 49H89.3955L78.6816 22.5859L79.1084 36.2646V49H74.7959V16.2969H80.3662ZM124.3 32.7158L132.835 16.2969H137.731L126.456 36.8037V49H122.144V36.8037L110.868 16.2969H115.81L124.3 32.7158Z" fill="#FE6D34"/>
<defs>
<linearGradient id="paint0_linear_704_2" x1="68.5649" y1="10" x2="151.031" y2="49.0894" gradientUnits="userSpaceOnUse">
<stop stop-color="#E2E5EC"/>
<stop offset="1" stop-color="white"/>
</linearGradient>
</defs>
</svg>
