<svg width="34" height="44" viewBox="0 0 34 44" fill="none" xmlns="http://www.w3.org/2000/svg">
<path d="M30 0H4C1.79086 0 0 1.79086 0 4V30.3089C0 31.6739 0.696121 32.9447 1.84644 33.6797L15.7143 42.5397C17.0944 43.4214 18.8726 43.3728 20.2024 42.417L32.3345 33.697C33.3801 32.9455 34 31.7366 34 30.449V4C34 1.79086 32.2091 0 30 0Z" fill="#41C16C"/>
<path d="M10.5469 22H9.41602L5.12109 15.4258V22H3.99023V13.4688H5.12109L9.42773 20.0723V13.4688H10.5469V22ZM17.3672 18.0566H13.6699V21.0801H17.9648V22H12.5449V13.4688H17.9062V14.3945H13.6699V17.1367H17.3672V18.0566ZM21.2051 19.3105L21.3691 20.4355L21.6094 19.4219L23.2969 13.4688H24.2461L25.8926 19.4219L26.127 20.4531L26.3086 19.3047L27.6328 13.4688H28.7637L26.6953 22H25.6699L23.9121 15.7832L23.7773 15.1328L23.6426 15.7832L21.8203 22H20.7949L18.7324 13.4688H19.8574L21.2051 19.3105Z" fill="white"/>
</svg>
