<svg width="131" height="8" viewBox="0 0 131 8" fill="none" xmlns="http://www.w3.org/2000/svg">
<path d="M4.40576 3.67236C4.40576 4.15999 4.32373 4.5861 4.15967 4.95068C3.99561 5.31299 3.76318 5.58984 3.4624 5.78125C3.16162 5.97266 2.81071 6.06836 2.40967 6.06836C2.01774 6.06836 1.67025 5.97266 1.36719 5.78125C1.06413 5.58757 0.828288 5.31299 0.659668 4.95752C0.493327 4.59977 0.407878 4.1862 0.40332 3.7168V3.35791C0.40332 2.87939 0.486491 2.45671 0.652832 2.08984C0.819173 1.72298 1.05387 1.44271 1.35693 1.24902C1.66227 1.05306 2.0109 0.955078 2.40283 0.955078C2.8016 0.955078 3.15251 1.05192 3.45557 1.24561C3.7609 1.43701 3.99561 1.71615 4.15967 2.08301C4.32373 2.44759 4.40576 2.87256 4.40576 3.35791V3.67236ZM3.75293 3.35107C3.75293 2.7609 3.63444 2.30859 3.39746 1.99414C3.16048 1.67741 2.82894 1.51904 2.40283 1.51904C1.98812 1.51904 1.66113 1.67741 1.42188 1.99414C1.1849 2.30859 1.06299 2.74609 1.05615 3.30664V3.67236C1.05615 4.2443 1.17578 4.69434 1.41504 5.02246C1.65658 5.34831 1.98812 5.51123 2.40967 5.51123C2.8335 5.51123 3.16162 5.35742 3.39404 5.0498C3.62646 4.73991 3.74609 4.29671 3.75293 3.72021V3.35107ZM8.42529 1.56348H6.02588V3.05371H7.26318C7.78271 3.06055 8.18831 3.19385 8.47998 3.45361C8.77165 3.71338 8.91748 4.06657 8.91748 4.51318C8.91748 4.96208 8.77051 5.31982 8.47656 5.58643C8.18262 5.85303 7.78158 5.99089 7.27344 6H5.36621V1.02344H8.42529V1.56348ZM6.02588 3.59375V5.46338H7.22559C7.55143 5.46338 7.80436 5.37679 7.98438 5.20361C8.16667 5.03044 8.25781 4.79801 8.25781 4.50635C8.25781 4.22607 8.17008 4.00505 7.99463 3.84326C7.82145 3.68148 7.57422 3.59831 7.25293 3.59375H6.02588ZM13.6343 3.67236C13.6343 4.15999 13.5522 4.5861 13.3882 4.95068C13.2241 5.31299 12.9917 5.58984 12.6909 5.78125C12.3901 5.97266 12.0392 6.06836 11.6382 6.06836C11.2463 6.06836 10.8988 5.97266 10.5957 5.78125C10.2926 5.58757 10.0568 5.31299 9.88818 4.95752C9.72184 4.59977 9.63639 4.1862 9.63184 3.7168V3.35791C9.63184 2.87939 9.71501 2.45671 9.88135 2.08984C10.0477 1.72298 10.2824 1.44271 10.5854 1.24902C10.8908 1.05306 11.2394 0.955078 11.6313 0.955078C12.0301 0.955078 12.381 1.05192 12.6841 1.24561C12.9894 1.43701 13.2241 1.71615 13.3882 2.08301C13.5522 2.44759 13.6343 2.87256 13.6343 3.35791V3.67236ZM12.9814 3.35107C12.9814 2.7609 12.863 2.30859 12.626 1.99414C12.389 1.67741 12.0575 1.51904 11.6313 1.51904C11.2166 1.51904 10.8896 1.67741 10.6504 1.99414C10.4134 2.30859 10.2915 2.74609 10.2847 3.30664V3.67236C10.2847 4.2443 10.4043 4.69434 10.6436 5.02246C10.8851 5.34831 11.2166 5.51123 11.6382 5.51123C12.062 5.51123 12.3901 5.35742 12.6226 5.0498C12.855 4.73991 12.9746 4.29671 12.9814 3.72021V3.35107ZM15.2749 4.05176V6H14.6187V1.02344H16.4541C16.9987 1.02344 17.4248 1.16243 17.7324 1.44043C18.0423 1.71842 18.1973 2.08643 18.1973 2.54443C18.1973 3.02751 18.0457 3.40007 17.7427 3.66211C17.4419 3.92188 17.0101 4.05176 16.4473 4.05176H15.2749ZM15.2749 3.51514H16.4541C16.805 3.51514 17.0739 3.43311 17.2607 3.26904C17.4476 3.1027 17.541 2.86344 17.541 2.55127C17.541 2.25505 17.4476 2.01807 17.2607 1.84033C17.0739 1.6626 16.8175 1.57031 16.4917 1.56348H15.2749V3.51514ZM20.7437 3.91162L21.8887 1.02344H22.6509L20.8906 5.16943C20.7721 5.43376 20.6616 5.62174 20.5591 5.7334C20.4565 5.84277 20.3358 5.92708 20.1968 5.98633C20.0601 6.04329 19.888 6.07178 19.6807 6.07178C19.5007 6.07178 19.3856 6.06152 19.3354 6.04102L19.356 5.52148L19.667 5.53516C19.9062 5.53516 20.084 5.42008 20.2002 5.18994L20.2856 5.01221L20.4155 4.70801L18.7202 1.02344H19.4551L20.7437 3.91162ZM27.6343 7.22021H26.9814V6H23.4097V7.22363H22.7534L22.75 5.46338H23.1567C23.3709 5.22184 23.5407 4.89827 23.666 4.49268C23.7936 4.0848 23.8734 3.63818 23.9053 3.15283L24.0146 1.02344H26.9917V5.46338H27.6411L27.6343 7.22021ZM23.9053 5.46338H26.332V1.56348H24.647L24.5752 3.02637C24.5456 3.59831 24.4692 4.08594 24.3462 4.48926C24.2254 4.89258 24.0785 5.21729 23.9053 5.46338ZM32.1665 3.67236C32.1665 4.15999 32.0845 4.5861 31.9204 4.95068C31.7563 5.31299 31.5239 5.58984 31.2231 5.78125C30.9224 5.97266 30.5715 6.06836 30.1704 6.06836C29.7785 6.06836 29.431 5.97266 29.1279 5.78125C28.8249 5.58757 28.589 5.31299 28.4204 4.95752C28.2541 4.59977 28.1686 4.1862 28.1641 3.7168V3.35791C28.1641 2.87939 28.2472 2.45671 28.4136 2.08984C28.5799 1.72298 28.8146 1.44271 29.1177 1.24902C29.423 1.05306 29.7716 0.955078 30.1636 0.955078C30.5623 0.955078 30.9132 1.05192 31.2163 1.24561C31.5216 1.43701 31.7563 1.71615 31.9204 2.08301C32.0845 2.44759 32.1665 2.87256 32.1665 3.35791V3.67236ZM31.5137 3.35107C31.5137 2.7609 31.3952 2.30859 31.1582 1.99414C30.9212 1.67741 30.5897 1.51904 30.1636 1.51904C29.7489 1.51904 29.4219 1.67741 29.1826 1.99414C28.9456 2.30859 28.8237 2.74609 28.8169 3.30664V3.67236C28.8169 4.2443 28.9365 4.69434 29.1758 5.02246C29.4173 5.34831 29.7489 5.51123 30.1704 5.51123C30.5942 5.51123 30.9224 5.35742 31.1548 5.0498C31.3872 4.73991 31.5068 4.29671 31.5137 3.72021V3.35107ZM33.1509 6V1.02344H34.7778C35.3179 1.02344 35.7235 1.13509 35.9946 1.3584C36.2681 1.58171 36.4048 1.91211 36.4048 2.34961C36.4048 2.58203 36.3387 2.78825 36.2065 2.96826C36.0744 3.146 35.8944 3.28385 35.6665 3.38184C35.9354 3.45703 36.1473 3.60059 36.3022 3.8125C36.4595 4.02214 36.5381 4.27279 36.5381 4.56445C36.5381 5.01107 36.3934 5.36198 36.104 5.61719C35.8146 5.8724 35.4056 6 34.877 6H33.1509ZM33.8071 3.67236V5.46338H34.8906C35.196 5.46338 35.4364 5.38477 35.6118 5.22754C35.7896 5.06803 35.8784 4.84928 35.8784 4.57129C35.8784 3.97201 35.5526 3.67236 34.9009 3.67236H33.8071ZM33.8071 3.146H34.7983C35.0854 3.146 35.3145 3.07422 35.4854 2.93066C35.6585 2.78711 35.7451 2.59229 35.7451 2.34619C35.7451 2.07275 35.6654 1.87451 35.5059 1.75146C35.3464 1.62614 35.1037 1.56348 34.7778 1.56348H33.8071V3.146ZM40.2603 4.70117H38.1753L37.707 6H37.0303L38.9307 1.02344H39.5049L41.4087 6H40.7354L40.2603 4.70117ZM38.3735 4.16113H40.0654L39.2178 1.8335L38.3735 4.16113ZM45.9033 6H45.2437V3.69971H42.7349V6H42.0786V1.02344H42.7349V3.16309H45.2437V1.02344H45.9033V6ZM50.2065 1.02344H50.8628V6H50.2065V2.16504L47.7559 6H47.0962V1.02344H47.7559V4.8584L50.2065 1.02344ZM54.8721 3.69971H52.7153V5.46338H55.2207V6H52.0591V1.02344H55.1865V1.56348H52.7153V3.16309H54.8721V3.69971ZM60.9116 1.02344H61.5679V6H60.9116V2.16504L58.4609 6H57.8013V1.02344H58.4609V4.8584L60.9116 1.02344ZM65.1567 4.05176V6H64.5005V1.02344H66.3359C66.8805 1.02344 67.3066 1.16243 67.6143 1.44043C67.9242 1.71842 68.0791 2.08643 68.0791 2.54443C68.0791 3.02751 67.9276 3.40007 67.6245 3.66211C67.3237 3.92188 66.8919 4.05176 66.3291 4.05176H65.1567ZM65.1567 3.51514H66.3359C66.6868 3.51514 66.9557 3.43311 67.1426 3.26904C67.3294 3.1027 67.4229 2.86344 67.4229 2.55127C67.4229 2.25505 67.3294 2.01807 67.1426 1.84033C66.9557 1.6626 66.6994 1.57031 66.3735 1.56348H65.1567V3.51514ZM71.7295 3.69971H69.5728V5.46338H72.0781V6H68.9165V1.02344H72.0439V1.56348H69.5728V3.16309H71.7295V3.69971ZM73.5786 1.02344V5.46338H75.291V1.02344H75.9438V5.46338H77.646V1.02344H78.3022V6H72.9189V1.02344H73.5786ZM82.2979 3.69971H80.1411V5.46338H82.6465V6H79.4849V1.02344H82.6123V1.56348H80.1411V3.16309H82.2979V3.69971ZM87.2881 6H86.6284V3.69971H84.1196V6H83.4634V1.02344H84.1196V3.16309H86.6284V1.02344H87.2881V6ZM91.5913 1.02344H92.2476V6H91.5913V2.16504L89.1406 6H88.481V1.02344H89.1406V4.8584L91.5913 1.02344ZM96.0483 6V4.06201H94.8999L93.8711 6H93.1704L94.3257 3.88086C93.6831 3.62793 93.3618 3.17562 93.3618 2.52393C93.3618 2.04997 93.5168 1.68197 93.8267 1.41992C94.1388 1.1556 94.5718 1.02344 95.1255 1.02344H96.708V6H96.0483ZM94.0181 2.52393C94.0181 2.82471 94.1115 3.06624 94.2983 3.24854C94.4875 3.43083 94.7495 3.52311 95.0845 3.52539H96.0483V1.56348H95.1152C94.7598 1.56348 94.4875 1.64779 94.2983 1.81641C94.1115 1.98503 94.0181 2.22087 94.0181 2.52393ZM104.115 7.22021H103.462V6H99.8901V7.22363H99.2339L99.2305 5.46338H99.6372C99.8514 5.22184 100.021 4.89827 100.146 4.49268C100.274 4.0848 100.354 3.63818 100.386 3.15283L100.495 1.02344H103.472V5.46338H104.122L104.115 7.22021ZM100.386 5.46338H102.812V1.56348H101.127L101.056 3.02637C101.026 3.59831 100.95 4.08594 100.827 4.48926C100.706 4.89258 100.559 5.21729 100.386 5.46338ZM108.719 1.02344V6H108.062V1.56348H106.278L106.189 3.53564C106.155 4.19645 106.087 4.6932 105.984 5.02588C105.884 5.35856 105.736 5.60352 105.54 5.76074C105.344 5.91569 105.082 5.99544 104.754 6H104.539V5.46338L104.675 5.45654C104.887 5.44059 105.05 5.37223 105.164 5.25146C105.278 5.12842 105.365 4.93359 105.424 4.66699C105.483 4.40039 105.525 3.99023 105.55 3.43652L105.653 1.02344H108.719ZM112.516 6V4.06201H111.368L110.339 6H109.638L110.793 3.88086C110.151 3.62793 109.83 3.17562 109.83 2.52393C109.83 2.04997 109.985 1.68197 110.294 1.41992C110.607 1.1556 111.04 1.02344 111.593 1.02344H113.176V6H112.516ZM110.486 2.52393C110.486 2.82471 110.579 3.06624 110.766 3.24854C110.955 3.43083 111.217 3.52311 111.552 3.52539H112.516V1.56348H111.583C111.228 1.56348 110.955 1.64779 110.766 1.81641C110.579 1.98503 110.486 2.22087 110.486 2.52393ZM117.752 5.12842L119.174 1.02344H119.892L118.046 6H117.465L115.623 1.02344H116.337L117.752 5.12842ZM124.342 3.67236C124.342 4.15999 124.26 4.5861 124.096 4.95068C123.932 5.31299 123.7 5.58984 123.399 5.78125C123.098 5.97266 122.747 6.06836 122.346 6.06836C121.954 6.06836 121.607 5.97266 121.304 5.78125C121.001 5.58757 120.765 5.31299 120.596 4.95752C120.43 4.59977 120.344 4.1862 120.34 3.7168V3.35791C120.34 2.87939 120.423 2.45671 120.589 2.08984C120.756 1.72298 120.99 1.44271 121.293 1.24902C121.599 1.05306 121.947 0.955078 122.339 0.955078C122.738 0.955078 123.089 1.05192 123.392 1.24561C123.697 1.43701 123.932 1.71615 124.096 2.08301C124.26 2.44759 124.342 2.87256 124.342 3.35791V3.67236ZM123.689 3.35107C123.689 2.7609 123.571 2.30859 123.334 1.99414C123.097 1.67741 122.765 1.51904 122.339 1.51904C121.925 1.51904 121.598 1.67741 121.358 1.99414C121.121 2.30859 121 2.74609 120.993 3.30664V3.67236C120.993 4.2443 121.112 4.69434 121.352 5.02246C121.593 5.34831 121.925 5.51123 122.346 5.51123C122.77 5.51123 123.098 5.35742 123.331 5.0498C123.563 4.73991 123.683 4.29671 123.689 3.72021V3.35107ZM126.031 6H125.375V1.02344H126.031V6ZM127.89 4.05176V6H127.234V1.02344H129.069C129.614 1.02344 130.04 1.16243 130.348 1.44043C130.658 1.71842 130.812 2.08643 130.812 2.54443C130.812 3.02751 130.661 3.40007 130.358 3.66211C130.057 3.92188 129.625 4.05176 129.062 4.05176H127.89ZM127.89 3.51514H129.069C129.42 3.51514 129.689 3.43311 129.876 3.26904C130.063 3.1027 130.156 2.86344 130.156 2.55127C130.156 2.25505 130.063 2.01807 129.876 1.84033C129.689 1.6626 129.433 1.57031 129.107 1.56348H127.89V3.51514Z" fill="white"/>
</svg>
